# xmcd
#
# Track frame offsets: 
#        150
#        11153
#        22914
#        36637
#        50744
#        64272
#        77703
#        90539
#        104358
#        118005
#        131217
#        142585
#        153653
#        164990
#        178335
#        192920
#        208219
#        221632
#        234898
#        246492
#        260778
#        274308
#        285791
#        299011
#        312773
#
# Disc length: 4320 seconds
#
# Revision: 4
# Processed by: cddbd v1.5.2PL0 Copyright (c) Steve Scherf et al.
# Submitted via: ExactAudioCopyFreeDBPlugin 1.0
#
DISCID=8c10de19
DTITLE=Various Artist - A Cellarful of Motown
DYEAR=2010
DGENRE=Soul
TTITLE0=The Vandellas - Miss Lonely Heart
TTITLE1=J.J. Barnes - The House That Jack Built
TTITLE2=Earl Van Dyke - The Philly Dog
TTITLE3=The Utopians - Whole Lot of Shakin' in My Heart (Since I Met Y
TTITLE3=ou)
TTITLE4=Ivy Jo Hunter - Only a Lonely Man Would Know
TTITLE5=Blinky - It's Gonna Be Always
TTITLE6=The Contours - Somebody's Waiting for Me
TTITLE7=Gladys Knight and The Pips - A Bird in the Hand (Is Worth Two in
TTITLE7=the Bush)
TTITLE8=Tammi Terrell - Don't Let Me Be Lonely
TTITLE9=Stevie Wonder - Why Don't You Come Home
TTITLE10=The Miracles - You Can Do It
TTITLE11=Debbie Dean - You Gave Me Love to Live For
TTITLE12=The Spinners - Head Over Heels in Love with You Baby
TTITLE13=Chuck Jackson - I'd Cry
TTITLE14=The Lollipops - In the Summer
TTITLE15=The Originals - Just Let Me Thank You for Loving Me
TTITLE16=Dennis Edwards - I Feel Like I'm Falling in Love Again
TTITLE17=Jr. Walker and The All Stars - Sock it to 'Um
TTITLE18=The Fantastic Four - Take Him Back If it Makes You Happy
TTITLE19=Edwin Starr - Born to Be Bad
TTITLE20=Marv Johnson - She's All I Need (In This World)
TTITLE21=Shorty Long - Mobile Lil the Dancing Witch
TTITLE22=The Agents - Hey Girl, Come On Do the Pearl
TTITLE23=David Ruffin - In the Cool of the Night
TTITLE24=Brenda Holloway - Little Miss Loser
EXTD=
EXTT0=
EXTT1=
EXTT2=
EXTT3=
EXTT4=
EXTT5=
EXTT6=
EXTT7=
EXTT8=
EXTT9=
EXTT10=
EXTT11=
EXTT12=
EXTT13=
EXTT14=
EXTT15=
EXTT16=
EXTT17=
EXTT18=
EXTT19=
EXTT20=
EXTT21=
EXTT22=
EXTT23=
EXTT24=
PLAYORDER=
